<mxfile host="app.diagrams.net" agent="Mozilla/5.0 (Macintosh; Intel Mac OS X 10_15_7) AppleWebKit/537.36 (KHTML, like Gecko) Chrome/128.0.0.0 Safari/537.36" version="24.7.17">
  <diagram name="第 1 页" id="MwJttzerzzmq0-jkarVP">
    <mxGraphModel dx="2069" dy="819" grid="1" gridSize="10" guides="1" tooltips="1" connect="1" arrows="1" fold="1" page="1" pageScale="1" pageWidth="827" pageHeight="1169" math="0" shadow="0">
      <root>
        <mxCell id="0" />
        <mxCell id="1" parent="0" />
        <mxCell id="wWuonypCQ5L7Ml_nOVC9-1" value="A" style="rounded=0;whiteSpace=wrap;html=1;fillColor=#33FF33;strokeWidth=2;" vertex="1" parent="1">
          <mxGeometry x="-280" y="280" width="240" height="40" as="geometry" />
        </mxCell>
        <mxCell id="wWuonypCQ5L7Ml_nOVC9-3" value="&lt;font style=&quot;font-size: 16px;&quot;&gt;B&#39;s RTTI&lt;/font&gt;" style="rounded=0;whiteSpace=wrap;html=1;fillColor=#99CCFF;strokeWidth=2;" vertex="1" parent="1">
          <mxGeometry x="-40" y="280" width="240" height="40" as="geometry" />
        </mxCell>
        <mxCell id="wWuonypCQ5L7Ml_nOVC9-4" value="&lt;span style=&quot;font-size: 15px;&quot;&gt;D&#39;s RTTI&lt;/span&gt;" style="rounded=0;whiteSpace=wrap;html=1;fillColor=#99CCFF;strokeWidth=2;" vertex="1" parent="1">
          <mxGeometry x="200" y="280" width="240" height="40" as="geometry" />
        </mxCell>
        <mxCell id="wWuonypCQ5L7Ml_nOVC9-5" value="&lt;font style=&quot;font-size: 16px;&quot;&gt;E&#39;s RTTI&lt;/font&gt;" style="rounded=0;whiteSpace=wrap;html=1;fillColor=#99CCFF;strokeWidth=2;" vertex="1" parent="1">
          <mxGeometry x="440" y="280" width="240" height="40" as="geometry" />
        </mxCell>
        <mxCell id="wWuonypCQ5L7Ml_nOVC9-6" value="C" style="rounded=0;whiteSpace=wrap;html=1;fillColor=#FF9933;strokeWidth=2;" vertex="1" parent="1">
          <mxGeometry x="680" y="280" width="240" height="40" as="geometry" />
        </mxCell>
        <mxCell id="wWuonypCQ5L7Ml_nOVC9-9" value="" style="endArrow=classic;html=1;rounded=0;" edge="1" parent="1">
          <mxGeometry width="50" height="50" relative="1" as="geometry">
            <mxPoint x="120" y="345" as="sourcePoint" />
            <mxPoint x="120" y="325" as="targetPoint" />
          </mxGeometry>
        </mxCell>
        <mxCell id="wWuonypCQ5L7Ml_nOVC9-11" value="" style="endArrow=classic;html=1;rounded=0;" edge="1" parent="1">
          <mxGeometry width="50" height="50" relative="1" as="geometry">
            <mxPoint x="600" y="344" as="sourcePoint" />
            <mxPoint x="600" y="324" as="targetPoint" />
          </mxGeometry>
        </mxCell>
        <mxCell id="wWuonypCQ5L7Ml_nOVC9-12" value="&lt;font style=&quot;font-size: 20px;&quot;&gt;lower bound: 0x028&lt;/font&gt;" style="rounded=0;whiteSpace=wrap;html=1;strokeColor=#FFFFFF;fontSize=20;" vertex="1" parent="1">
          <mxGeometry x="10" y="350" width="230" height="20" as="geometry" />
        </mxCell>
        <mxCell id="wWuonypCQ5L7Ml_nOVC9-16" value="" style="endArrow=none;dashed=1;html=1;rounded=0;exitX=0.333;exitY=0.975;exitDx=0;exitDy=0;exitPerimeter=0;entryX=0.333;entryY=0;entryDx=0;entryDy=0;entryPerimeter=0;" edge="1" parent="1" source="wWuonypCQ5L7Ml_nOVC9-3" target="wWuonypCQ5L7Ml_nOVC9-3">
          <mxGeometry width="50" height="50" relative="1" as="geometry">
            <mxPoint x="337.06" y="430" as="sourcePoint" />
            <mxPoint x="240.0011764705883" y="280" as="targetPoint" />
            <Array as="points" />
          </mxGeometry>
        </mxCell>
        <mxCell id="wWuonypCQ5L7Ml_nOVC9-17" value="" style="endArrow=none;dashed=1;html=1;rounded=0;exitX=0.333;exitY=0.975;exitDx=0;exitDy=0;exitPerimeter=0;" edge="1" parent="1">
          <mxGeometry width="50" height="50" relative="1" as="geometry">
            <mxPoint x="280" y="320" as="sourcePoint" />
            <mxPoint x="280.0011764705883" y="281" as="targetPoint" />
            <Array as="points">
              <mxPoint x="280" y="301" />
            </Array>
          </mxGeometry>
        </mxCell>
        <mxCell id="wWuonypCQ5L7Ml_nOVC9-18" value="" style="endArrow=none;dashed=1;html=1;rounded=0;exitX=0.333;exitY=0.975;exitDx=0;exitDy=0;exitPerimeter=0;" edge="1" parent="1">
          <mxGeometry width="50" height="50" relative="1" as="geometry">
            <mxPoint x="360" y="320" as="sourcePoint" />
            <mxPoint x="360.0011764705883" y="281" as="targetPoint" />
            <Array as="points">
              <mxPoint x="360" y="301" />
            </Array>
          </mxGeometry>
        </mxCell>
        <mxCell id="wWuonypCQ5L7Ml_nOVC9-20" value="" style="endArrow=none;dashed=1;html=1;rounded=0;exitX=0.333;exitY=0.975;exitDx=0;exitDy=0;exitPerimeter=0;" edge="1" parent="1">
          <mxGeometry width="50" height="50" relative="1" as="geometry">
            <mxPoint x="520" y="320" as="sourcePoint" />
            <mxPoint x="520.0011764705882" y="281" as="targetPoint" />
            <Array as="points">
              <mxPoint x="520" y="301" />
            </Array>
          </mxGeometry>
        </mxCell>
        <mxCell id="wWuonypCQ5L7Ml_nOVC9-22" value="" style="endArrow=none;dashed=1;html=1;rounded=0;exitX=0.333;exitY=0.975;exitDx=0;exitDy=0;exitPerimeter=0;entryX=0.333;entryY=0;entryDx=0;entryDy=0;entryPerimeter=0;" edge="1" parent="1">
          <mxGeometry width="50" height="50" relative="1" as="geometry">
            <mxPoint x="120" y="320" as="sourcePoint" />
            <mxPoint x="120" y="281" as="targetPoint" />
            <Array as="points" />
          </mxGeometry>
        </mxCell>
        <mxCell id="wWuonypCQ5L7Ml_nOVC9-23" value="" style="endArrow=none;dashed=1;html=1;rounded=0;exitX=0.333;exitY=0.975;exitDx=0;exitDy=0;exitPerimeter=0;" edge="1" parent="1">
          <mxGeometry width="50" height="50" relative="1" as="geometry">
            <mxPoint x="600" y="319" as="sourcePoint" />
            <mxPoint x="600.0011764705882" y="280" as="targetPoint" />
            <Array as="points">
              <mxPoint x="600" y="300" />
            </Array>
          </mxGeometry>
        </mxCell>
        <mxCell id="wWuonypCQ5L7Ml_nOVC9-24" value="&lt;font style=&quot;font-size: 15px;&quot;&gt;offset to top&lt;/font&gt;" style="rounded=0;whiteSpace=wrap;html=1;fillColor=#99CCFF;strokeColor=#99CCFF;" vertex="1" parent="1">
          <mxGeometry x="-30" y="290" width="65" height="20" as="geometry" />
        </mxCell>
        <mxCell id="wWuonypCQ5L7Ml_nOVC9-25" value="&lt;font style=&quot;font-size: 15px;&quot;&gt;offset to top&lt;/font&gt;" style="rounded=0;whiteSpace=wrap;html=1;fillColor=#99CCFF;strokeColor=#99CCFF;" vertex="1" parent="1">
          <mxGeometry x="210" y="290" width="65" height="20" as="geometry" />
        </mxCell>
        <mxCell id="wWuonypCQ5L7Ml_nOVC9-26" value="&lt;font style=&quot;font-size: 15px;&quot;&gt;offset to top&lt;/font&gt;" style="rounded=0;whiteSpace=wrap;html=1;fillColor=#99CCFF;strokeColor=#99CCFF;" vertex="1" parent="1">
          <mxGeometry x="450" y="290" width="65" height="20" as="geometry" />
        </mxCell>
        <mxCell id="wWuonypCQ5L7Ml_nOVC9-27" value="&lt;font style=&quot;font-size: 18px;&quot;&gt;vfunc&lt;/font&gt;" style="rounded=0;whiteSpace=wrap;html=1;fillColor=#99CCFF;strokeColor=#99CCFF;" vertex="1" parent="1">
          <mxGeometry x="130" y="290" width="65" height="20" as="geometry" />
        </mxCell>
        <mxCell id="wWuonypCQ5L7Ml_nOVC9-29" value="&lt;font style=&quot;font-size: 19px;&quot;&gt;vfunc&lt;/font&gt;" style="rounded=0;whiteSpace=wrap;html=1;fillColor=#99CCFF;strokeColor=#99CCFF;" vertex="1" parent="1">
          <mxGeometry x="370" y="290" width="65" height="20" as="geometry" />
        </mxCell>
        <mxCell id="wWuonypCQ5L7Ml_nOVC9-30" value="&lt;font style=&quot;font-size: 18px;&quot;&gt;vfunc&lt;/font&gt;" style="rounded=0;whiteSpace=wrap;html=1;fillColor=#99CCFF;strokeColor=#99CCFF;fontSize=18;" vertex="1" parent="1">
          <mxGeometry x="610" y="290" width="65" height="20" as="geometry" />
        </mxCell>
        <mxCell id="wWuonypCQ5L7Ml_nOVC9-32" value="&lt;font style=&quot;font-size: 20px;&quot;&gt;upper bound: 0x058&lt;/font&gt;" style="rounded=0;whiteSpace=wrap;html=1;strokeColor=#FFFFFF;fontSize=20;" vertex="1" parent="1">
          <mxGeometry x="480" y="350" width="230" height="10" as="geometry" />
        </mxCell>
      </root>
    </mxGraphModel>
  </diagram>
</mxfile>
